<?xml version="1.0" standalone="no"?>
<!DOCTYPE svg PUBLIC "-//W3C//DTD SVG 20010904//EN"
 "http://www.w3.org/TR/2001/REC-SVG-20010904/DTD/svg10.dtd">
<svg version="1.0" xmlns="http://www.w3.org/2000/svg"
 width="1500.000000pt" height="1500.000000pt" viewBox="0 0 1500.000000 1500.000000"
 preserveAspectRatio="xMidYMid meet">

<g transform="translate(0.000000,1500.000000) scale(0.100000,-0.100000)"
fill="#000000" stroke="none">
<path d="M7520 14993 c-124 -6 -446 -44 -576 -68 -795 -147 -1524 -490 -2153
-1013 -149 -123 -449 -424 -572 -572 -191 -230 -353 -460 -478 -680 -39 -69
-74 -130 -78 -137 -5 -7 -70 -16 -173 -23 -874 -59 -1694 -419 -2324 -1021
-641 -612 -1039 -1422 -1130 -2299 -41 -400 -24 -766 55 -1152 158 -782 581
-1508 1189 -2042 445 -391 950 -660 1525 -811 268 -71 481 -101 800 -115 276
-12 3415 -13 3415 -1 0 4 -13 60 -30 122 -65 247 -111 533 -131 808 -15 204
-7 627 16 811 64 536 198 997 421 1451 368 749 951 1378 1671 1802 970 572
2211 745 3312 462 74 -19 139 -35 144 -35 12 0 1 183 -23 400 -154 1353 -904
2580 -2040 3334 -276 184 -475 292 -755 411 -655 280 -1357 404 -2085 368z"/>
<path d="M10970 9399 c-419 -37 -774 -139 -1152 -331 -535 -272 -990 -698
-1297 -1216 -508 -855 -569 -1897 -166 -2830 93 -215 260 -489 421 -692 94
-117 338 -360 461 -458 120 -95 323 -231 440 -295 511 -280 1133 -418 1712
-379 358 24 696 99 1021 227 140 55 372 169 475 233 l50 31 510 -508 c547
-544 531 -530 690 -587 73 -26 270 -26 345 0 152 51 260 133 340 253 77 118
95 182 95 338 0 110 -4 140 -23 197 -44 128 -80 169 -594 685 l-491 491 45 79
c466 808 575 1785 296 2642 -113 350 -278 659 -512 961 -96 124 -356 389 -476
484 -298 237 -697 447 -1047 551 -365 108 -796 154 -1143 124z m480 -1253
c307 -42 598 -154 840 -324 123 -86 345 -308 430 -430 163 -233 265 -485 317
-787 24 -140 24 -483 0 -615 -53 -290 -145 -526 -292 -745 -275 -411 -674
-674 -1180 -776 -136 -27 -450 -37 -608 -19 -576 66 -1099 408 -1377 900 -348
618 -327 1402 53 1983 211 323 527 576 890 711 120 45 278 84 411 101 137 17
388 18 516 1z"/>
<path d="M6220 1625 l0 -605 70 0 70 0 0 164 0 164 42 31 42 31 129 -195 130
-195 79 0 c43 0 78 2 78 5 0 3 -70 106 -155 230 -86 124 -158 232 -161 239 -3
9 50 80 132 178 76 90 144 171 152 181 14 16 10 17 -66 17 l-81 0 -162 -200
c-89 -110 -162 -200 -163 -200 -1 0 0 171 2 380 l5 380 -72 0 -71 0 0 -605z"/>
<path d="M7026 2169 c-37 -29 -37 -99 0 -136 21 -21 32 -24 62 -19 47 7 72 37
72 88 0 75 -75 113 -134 67z"/>
<path d="M7461 1977 l-32 -94 -59 -28 c-55 -27 -60 -31 -60 -62 l0 -33 59 0
60 0 3 -297 c3 -279 4 -301 24 -344 28 -61 78 -98 145 -108 51 -8 156 0 179
14 5 3 10 28 10 55 l0 50 -73 -6 c-67 -6 -75 -5 -100 17 -16 14 -32 41 -37 64
-5 22 -10 156 -10 297 l0 257 108 3 107 3 3 53 3 52 -110 0 -111 0 0 100 0
100 -39 0 -39 0 -31 -93z"/>
<path d="M4893 1880 c-58 -12 -91 -31 -140 -80 -45 -46 -44 -46 -58 33 l-6 37
-59 0 -60 0 0 -615 0 -615 76 0 77 0 -5 246 -6 247 25 -32 c53 -68 169 -107
273 -90 175 27 270 182 270 439 0 160 -41 282 -121 360 -60 58 -175 89 -266
70z m123 -129 c67 -31 97 -87 114 -215 14 -100 1 -233 -28 -299 -62 -141 -252
-157 -339 -29 -34 51 -46 131 -41 276 4 138 21 198 68 241 49 45 157 57 226
26z"/>
<path d="M5669 1880 c-163 -29 -247 -144 -208 -283 19 -69 72 -115 209 -180
69 -32 139 -70 157 -83 65 -49 61 -148 -7 -188 -29 -17 -51 -21 -130 -20 -90
0 -125 8 -232 49 -16 6 -18 0 -18 -53 0 -35 5 -64 13 -70 28 -23 131 -44 225
-44 219 -1 332 80 332 240 0 35 -6 77 -14 95 -23 56 -96 110 -225 166 -140 62
-181 97 -181 160 0 94 119 126 280 75 45 -14 83 -24 85 -22 2 2 13 25 25 52
24 57 25 57 -66 85 -74 23 -182 33 -245 21z"/>
<path d="M8639 1880 c-153 -27 -252 -127 -289 -292 -19 -83 -9 -289 17 -355
41 -104 112 -175 208 -208 70 -24 213 -23 280 2 l50 19 3 63 c3 55 1 63 -13
57 -121 -46 -246 -48 -312 -4 -74 49 -110 165 -100 323 11 158 57 238 151 265
54 15 149 9 213 -14 l42 -15 20 60 20 60 -23 9 c-80 30 -195 43 -267 30z"/>
<path d="M9370 1880 c-187 -33 -299 -194 -300 -431 -1 -294 175 -472 432 -437
153 21 253 120 293 290 29 123 13 293 -36 390 -71 138 -232 216 -389 188z
m145 -121 c60 -17 109 -73 130 -151 13 -50 16 -93 14 -189 -4 -114 -6 -129
-34 -184 -48 -95 -128 -132 -238 -106 -69 16 -106 45 -135 110 -22 48 -27 73
-30 179 -5 149 12 231 61 287 51 58 141 79 232 54z"/>
<path d="M10353 1880 c-61 -13 -117 -45 -151 -86 -33 -40 -37 -38 -46 29 l-7
47 -60 0 -59 0 0 -425 0 -425 69 0 69 0 5 283 c4 292 9 327 50 388 66 100 235
104 292 8 19 -32 20 -55 23 -356 l3 -323 69 0 68 0 5 288 c2 184 8 301 16 325
28 88 117 145 210 134 61 -7 86 -22 114 -67 21 -34 22 -46 25 -357 l3 -323 70
0 70 0 -3 343 c-3 337 -3 343 -27 390 -45 91 -126 133 -254 130 -85 -2 -158
-35 -213 -95 -27 -30 -39 -38 -42 -28 -10 32 -88 98 -127 108 -64 17 -127 21
-172 12z"/>
<path d="M3815 1478 c73 -216 139 -408 145 -425 l12 -33 88 0 88 0 12 33 c6
17 72 209 145 425 l134 392 -73 0 -72 0 -16 -47 c-91 -278 -172 -539 -192
-615 -13 -51 -27 -86 -29 -78 -3 8 -17 58 -32 110 -14 52 -65 215 -112 363
l-87 267 -72 0 -73 0 134 -392z"/>
<path d="M7010 1445 l0 -425 70 0 70 0 0 425 0 425 -70 0 -70 0 0 -425z"/>
<path d="M7965 1185 c-19 -19 -25 -35 -25 -70 0 -78 30 -114 95 -114 65 0 95
36 95 114 0 64 -31 95 -95 95 -35 0 -52 -6 -70 -25z"/>
</g>
</svg>
